<svg width="350" height="155" viewBox="0 0 350 155" fill="none" xmlns="http://www.w3.org/2000/svg">
<g filter="url(#filter0_d_1_28)">
<rect x="40" y="24" width="270" height="75" rx="25" fill="white"/>
</g>
<rect x="237" y="37" width="60" height="50" rx="15" fill="#2D76F9"/>
<path d="M67.856 66.592H60.872L59.672 70H56.816L62.792 53.296H65.96L71.936 70H69.056L67.856 66.592ZM67.088 64.36L64.376 56.608L61.64 64.36H67.088ZM81.2064 56.56C82.2464 56.56 83.1744 56.776 83.9904 57.208C84.8224 57.64 85.4704 58.28 85.9344 59.128C86.3984 59.976 86.6304 61 86.6304 62.2V70H83.9184V62.608C83.9184 61.424 83.6224 60.52 83.0304 59.896C82.4384 59.256 81.6304 58.936 80.6064 58.936C79.5824 58.936 78.7664 59.256 78.1584 59.896C77.5664 60.52 77.2704 61.424 77.2704 62.608V70H74.5344V56.776H77.2704V58.288C77.7184 57.744 78.2864 57.32 78.9744 57.016C79.6784 56.712 80.4224 56.56 81.2064 56.56ZM97.7467 55.024C97.2507 55.024 96.8347 54.856 96.4987 54.52C96.1627 54.184 95.9947 53.768 95.9947 53.272C95.9947 52.776 96.1627 52.36 96.4987 52.024C96.8347 51.688 97.2507 51.52 97.7467 51.52C98.2267 51.52 98.6347 51.688 98.9707 52.024C99.3067 52.36 99.4747 52.776 99.4747 53.272C99.4747 53.768 99.3067 54.184 98.9707 54.52C98.6347 54.856 98.2267 55.024 97.7467 55.024ZM99.0907 56.776V70H96.3547V56.776H99.0907ZM109.355 56.56C110.395 56.56 111.323 56.776 112.139 57.208C112.971 57.64 113.619 58.28 114.083 59.128C114.547 59.976 114.779 61 114.779 62.2V70H112.067V62.608C112.067 61.424 111.771 60.52 111.179 59.896C110.587 59.256 109.779 58.936 108.755 58.936C107.731 58.936 106.915 59.256 106.307 59.896C105.715 60.52 105.419 61.424 105.419 62.608V70H102.683V56.776H105.419V58.288C105.867 57.744 106.435 57.32 107.123 57.016C107.827 56.712 108.571 56.56 109.355 56.56ZM121.461 59.008V66.328C121.461 66.824 121.573 67.184 121.797 67.408C122.037 67.616 122.437 67.72 122.997 67.72H124.677V70H122.517C121.285 70 120.341 69.712 119.685 69.136C119.029 68.56 118.701 67.624 118.701 66.328V59.008H117.141V56.776H118.701V53.488H121.461V56.776H124.677V59.008H121.461ZM139.318 63.064C139.318 63.56 139.286 64.008 139.222 64.408H129.118C129.198 65.464 129.59 66.312 130.294 66.952C130.998 67.592 131.862 67.912 132.886 67.912C134.358 67.912 135.398 67.296 136.006 66.064H138.958C138.558 67.28 137.83 68.28 136.774 69.064C135.734 69.832 134.438 70.216 132.886 70.216C131.622 70.216 130.486 69.936 129.478 69.376C128.486 68.8 127.702 68 127.126 66.976C126.566 65.936 126.286 64.736 126.286 63.376C126.286 62.016 126.558 60.824 127.102 59.8C127.662 58.76 128.438 57.96 129.43 57.4C130.438 56.84 131.59 56.56 132.886 56.56C134.134 56.56 135.246 56.832 136.222 57.376C137.198 57.92 137.958 58.688 138.502 59.68C139.046 60.656 139.318 61.784 139.318 63.064ZM136.462 62.2C136.446 61.192 136.086 60.384 135.382 59.776C134.678 59.168 133.806 58.864 132.766 58.864C131.822 58.864 131.014 59.168 130.342 59.776C129.67 60.368 129.27 61.176 129.142 62.2H136.462ZM144.747 58.696C145.147 58.024 145.675 57.504 146.331 57.136C147.003 56.752 147.795 56.56 148.707 56.56V59.392H148.011C146.939 59.392 146.123 59.664 145.563 60.208C145.019 60.752 144.747 61.696 144.747 63.04V70H142.011V56.776H144.747V58.696ZM163.342 63.064C163.342 63.56 163.31 64.008 163.246 64.408H153.142C153.222 65.464 153.614 66.312 154.318 66.952C155.022 67.592 155.886 67.912 156.91 67.912C158.382 67.912 159.422 67.296 160.03 66.064H162.982C162.582 67.28 161.854 68.28 160.798 69.064C159.758 69.832 158.462 70.216 156.91 70.216C155.646 70.216 154.51 69.936 153.502 69.376C152.51 68.8 151.726 68 151.15 66.976C150.59 65.936 150.31 64.736 150.31 63.376C150.31 62.016 150.582 60.824 151.126 59.8C151.686 58.76 152.462 57.96 153.454 57.4C154.462 56.84 155.614 56.56 156.91 56.56C158.158 56.56 159.27 56.832 160.246 57.376C161.222 57.92 161.982 58.688 162.526 59.68C163.07 60.656 163.342 61.784 163.342 63.064ZM160.486 62.2C160.47 61.192 160.11 60.384 159.406 59.776C158.702 59.168 157.83 58.864 156.79 58.864C155.846 58.864 155.038 59.168 154.366 59.776C153.694 60.368 153.294 61.176 153.166 62.2H160.486ZM170.834 70.216C169.794 70.216 168.858 70.032 168.026 69.664C167.21 69.28 166.562 68.768 166.082 68.128C165.602 67.472 165.346 66.744 165.314 65.944H168.146C168.194 66.504 168.458 66.976 168.938 67.36C169.434 67.728 170.05 67.912 170.786 67.912C171.554 67.912 172.146 67.768 172.562 67.48C172.994 67.176 173.21 66.792 173.21 66.328C173.21 65.832 172.97 65.464 172.49 65.224C172.026 64.984 171.282 64.72 170.258 64.432C169.266 64.16 168.458 63.896 167.834 63.64C167.21 63.384 166.666 62.992 166.202 62.464C165.754 61.936 165.53 61.24 165.53 60.376C165.53 59.672 165.738 59.032 166.154 58.456C166.57 57.864 167.162 57.4 167.93 57.064C168.714 56.728 169.61 56.56 170.618 56.56C172.122 56.56 173.33 56.944 174.242 57.712C175.17 58.464 175.666 59.496 175.73 60.808H172.994C172.946 60.216 172.706 59.744 172.274 59.392C171.842 59.04 171.258 58.864 170.522 58.864C169.802 58.864 169.25 59 168.866 59.272C168.482 59.544 168.29 59.904 168.29 60.352C168.29 60.704 168.418 61 168.674 61.24C168.93 61.48 169.242 61.672 169.61 61.816C169.978 61.944 170.522 62.112 171.242 62.32C172.202 62.576 172.986 62.84 173.594 63.112C174.218 63.368 174.754 63.752 175.202 64.264C175.65 64.776 175.882 65.456 175.898 66.304C175.898 67.056 175.69 67.728 175.274 68.32C174.858 68.912 174.266 69.376 173.498 69.712C172.746 70.048 171.858 70.216 170.834 70.216ZM182.047 59.008V66.328C182.047 66.824 182.159 67.184 182.383 67.408C182.623 67.616 183.023 67.72 183.583 67.72H185.263V70H183.103C181.871 70 180.927 69.712 180.271 69.136C179.615 68.56 179.287 67.624 179.287 66.328V59.008H177.727V56.776H179.287V53.488H182.047V56.776H185.263V59.008H182.047ZM189.176 55.024C188.68 55.024 188.264 54.856 187.928 54.52C187.592 54.184 187.424 53.768 187.424 53.272C187.424 52.776 187.592 52.36 187.928 52.024C188.264 51.688 188.68 51.52 189.176 51.52C189.656 51.52 190.064 51.688 190.4 52.024C190.736 52.36 190.904 52.776 190.904 53.272C190.904 53.768 190.736 54.184 190.4 54.52C190.064 54.856 189.656 55.024 189.176 55.024ZM190.52 56.776V70H187.784V56.776H190.52ZM200.785 56.56C201.825 56.56 202.753 56.776 203.569 57.208C204.401 57.64 205.049 58.28 205.513 59.128C205.977 59.976 206.209 61 206.209 62.2V70H203.497V62.608C203.497 61.424 203.201 60.52 202.609 59.896C202.017 59.256 201.209 58.936 200.185 58.936C199.161 58.936 198.345 59.256 197.737 59.896C197.145 60.52 196.849 61.424 196.849 62.608V70H194.113V56.776H196.849V58.288C197.297 57.744 197.865 57.32 198.553 57.016C199.257 56.712 200.001 56.56 200.785 56.56ZM215.026 56.56C216.05 56.56 216.954 56.768 217.738 57.184C218.538 57.584 219.162 58.088 219.61 58.696V56.776H222.37V70.216C222.37 71.432 222.114 72.512 221.602 73.456C221.09 74.416 220.346 75.168 219.37 75.712C218.41 76.256 217.258 76.528 215.914 76.528C214.122 76.528 212.634 76.104 211.45 75.256C210.266 74.424 209.594 73.288 209.434 71.848H212.146C212.354 72.536 212.794 73.088 213.466 73.504C214.154 73.936 214.97 74.152 215.914 74.152C217.018 74.152 217.906 73.816 218.578 73.144C219.266 72.472 219.61 71.496 219.61 70.216V68.008C219.146 68.632 218.514 69.16 217.714 69.592C216.93 70.008 216.034 70.216 215.026 70.216C213.874 70.216 212.818 69.928 211.858 69.352C210.914 68.76 210.162 67.944 209.602 66.904C209.058 65.848 208.786 64.656 208.786 63.328C208.786 62 209.058 60.824 209.602 59.8C210.162 58.776 210.914 57.984 211.858 57.424C212.818 56.848 213.874 56.56 215.026 56.56ZM219.61 63.376C219.61 62.464 219.418 61.672 219.034 61C218.666 60.328 218.178 59.816 217.57 59.464C216.962 59.112 216.306 58.936 215.602 58.936C214.898 58.936 214.242 59.112 213.634 59.464C213.026 59.8 212.53 60.304 212.146 60.976C211.778 61.632 211.594 62.416 211.594 63.328C211.594 64.24 211.778 65.04 212.146 65.728C212.53 66.416 213.026 66.944 213.634 67.312C214.258 67.664 214.914 67.84 215.602 67.84C216.306 67.84 216.962 67.664 217.57 67.312C218.178 66.96 218.666 66.448 219.034 65.776C219.418 65.088 219.61 64.288 219.61 63.376Z" fill="#2D76F9"/>
<path d="M259.968 53.248V63.616C259.968 64.752 260.264 65.624 260.856 66.232C261.448 66.824 262.28 67.12 263.352 67.12C264.44 67.12 265.28 66.824 265.872 66.232C266.464 65.624 266.76 64.752 266.76 63.616V53.248H270.144V63.592C270.144 65.016 269.832 66.224 269.208 67.216C268.6 68.192 267.776 68.928 266.736 69.424C265.712 69.92 264.568 70.168 263.304 70.168C262.056 70.168 260.92 69.92 259.896 69.424C258.888 68.928 258.088 68.192 257.496 67.216C256.904 66.224 256.608 65.016 256.608 63.592V53.248H259.968ZM276.75 53.248V70H273.39V53.248H276.75Z" fill="white"/>
<defs>
<filter id="filter0_d_1_28" x="0" y="0" width="350" height="155" filterUnits="userSpaceOnUse" color-interpolation-filters="sRGB">
<feFlood flood-opacity="0" result="BackgroundImageFix"/>
<feColorMatrix in="SourceAlpha" type="matrix" values="0 0 0 0 0 0 0 0 0 0 0 0 0 0 0 0 0 0 127 0" result="hardAlpha"/>
<feOffset dy="16"/>
<feGaussianBlur stdDeviation="20"/>
<feColorMatrix type="matrix" values="0 0 0 0 0.439216 0 0 0 0 0.564706 0 0 0 0 0.690196 0 0 0 0.1 0"/>
<feBlend mode="normal" in2="BackgroundImageFix" result="effect1_dropShadow_1_28"/>
<feBlend mode="normal" in="SourceGraphic" in2="effect1_dropShadow_1_28" result="shape"/>
</filter>
</defs>
</svg>
