<svg width="172" height="36" viewBox="0 0 172 36" fill="none" xmlns="http://www.w3.org/2000/svg">
<path d="M102.461 15.008V22.328C102.461 22.824 102.573 23.184 102.797 23.408C103.037 23.616 103.437 23.72 103.997 23.72H105.677V26H103.517C102.285 26 101.341 25.712 100.685 25.136C100.029 24.56 99.7008 23.624 99.7008 22.328V15.008H98.1408V12.776H99.7008V9.488H102.461V12.776H105.677V15.008H102.461ZM113.934 26.216C112.686 26.216 111.558 25.936 110.55 25.376C109.542 24.8 108.75 24 108.174 22.976C107.598 21.936 107.31 20.736 107.31 19.376C107.31 18.032 107.606 16.84 108.198 15.8C108.79 14.76 109.598 13.96 110.622 13.4C111.646 12.84 112.79 12.56 114.054 12.56C115.318 12.56 116.462 12.84 117.486 13.4C118.51 13.96 119.318 14.76 119.91 15.8C120.502 16.84 120.798 18.032 120.798 19.376C120.798 20.72 120.494 21.912 119.886 22.952C119.278 23.992 118.446 24.8 117.39 25.376C116.35 25.936 115.198 26.216 113.934 26.216ZM113.934 23.84C114.638 23.84 115.294 23.672 115.902 23.336C116.526 23 117.03 22.496 117.414 21.824C117.798 21.152 117.99 20.336 117.99 19.376C117.99 18.416 117.806 17.608 117.438 16.952C117.07 16.28 116.582 15.776 115.974 15.44C115.366 15.104 114.71 14.936 114.006 14.936C113.302 14.936 112.646 15.104 112.038 15.44C111.446 15.776 110.974 16.28 110.622 16.952C110.27 17.608 110.094 18.416 110.094 19.376C110.094 20.8 110.454 21.904 111.174 22.688C111.91 23.456 112.83 23.84 113.934 23.84ZM141.714 12.776V26H138.978V24.44C138.546 24.984 137.978 25.416 137.274 25.736C136.586 26.04 135.85 26.192 135.066 26.192C134.026 26.192 133.09 25.976 132.258 25.544C131.442 25.112 130.794 24.472 130.314 23.624C129.85 22.776 129.618 21.752 129.618 20.552V12.776H132.33V20.144C132.33 21.328 132.626 22.24 133.218 22.88C133.81 23.504 134.618 23.816 135.642 23.816C136.666 23.816 137.474 23.504 138.066 22.88C138.674 22.24 138.978 21.328 138.978 20.144V12.776H141.714ZM150.123 26.216C149.083 26.216 148.147 26.032 147.315 25.664C146.499 25.28 145.851 24.768 145.371 24.128C144.891 23.472 144.635 22.744 144.603 21.944H147.435C147.483 22.504 147.747 22.976 148.227 23.36C148.723 23.728 149.339 23.912 150.075 23.912C150.843 23.912 151.435 23.768 151.851 23.48C152.283 23.176 152.499 22.792 152.499 22.328C152.499 21.832 152.259 21.464 151.779 21.224C151.315 20.984 150.571 20.72 149.547 20.432C148.555 20.16 147.747 19.896 147.123 19.64C146.499 19.384 145.955 18.992 145.491 18.464C145.043 17.936 144.819 17.24 144.819 16.376C144.819 15.672 145.027 15.032 145.443 14.456C145.859 13.864 146.451 13.4 147.219 13.064C148.003 12.728 148.899 12.56 149.907 12.56C151.411 12.56 152.619 12.944 153.531 13.712C154.459 14.464 154.955 15.496 155.019 16.808H152.283C152.235 16.216 151.995 15.744 151.563 15.392C151.131 15.04 150.547 14.864 149.811 14.864C149.091 14.864 148.539 15 148.155 15.272C147.771 15.544 147.579 15.904 147.579 16.352C147.579 16.704 147.707 17 147.963 17.24C148.219 17.48 148.531 17.672 148.899 17.816C149.267 17.944 149.811 18.112 150.531 18.32C151.491 18.576 152.275 18.84 152.883 19.112C153.507 19.368 154.043 19.752 154.491 20.264C154.939 20.776 155.171 21.456 155.187 22.304C155.187 23.056 154.979 23.728 154.563 24.32C154.147 24.912 153.555 25.376 152.787 25.712C152.035 26.048 151.147 26.216 150.123 26.216ZM170.264 19.064C170.264 19.56 170.232 20.008 170.168 20.408H160.064C160.144 21.464 160.536 22.312 161.24 22.952C161.944 23.592 162.808 23.912 163.832 23.912C165.304 23.912 166.344 23.296 166.952 22.064H169.904C169.504 23.28 168.776 24.28 167.72 25.064C166.68 25.832 165.384 26.216 163.832 26.216C162.568 26.216 161.432 25.936 160.424 25.376C159.432 24.8 158.648 24 158.072 22.976C157.512 21.936 157.232 20.736 157.232 19.376C157.232 18.016 157.504 16.824 158.048 15.8C158.608 14.76 159.384 13.96 160.376 13.4C161.384 12.84 162.536 12.56 163.832 12.56C165.08 12.56 166.192 12.832 167.168 13.376C168.144 13.92 168.904 14.688 169.448 15.68C169.992 16.656 170.264 17.784 170.264 19.064ZM167.408 18.2C167.392 17.192 167.032 16.384 166.328 15.776C165.624 15.168 164.752 14.864 163.712 14.864C162.768 14.864 161.96 15.168 161.288 15.776C160.616 16.368 160.216 17.176 160.088 18.2H167.408Z" fill="#2D76F9"/>
<path d="M5.016 11.96V16.16H10.656V18.824H5.016V23.264H11.376V26H1.656V9.224H11.376V11.96H5.016ZM13.5654 19.304C13.5654 17.96 13.8294 16.768 14.3574 15.728C14.9014 14.688 15.6294 13.888 16.5414 13.328C17.4694 12.768 18.5014 12.488 19.6374 12.488C20.6294 12.488 21.4934 12.688 22.2294 13.088C22.9814 13.488 23.5814 13.992 24.0294 14.6V12.704H27.4134V26H24.0294V24.056C23.5974 24.68 22.9974 25.2 22.2294 25.616C21.4774 26.016 20.6054 26.216 19.6134 26.216C18.4934 26.216 17.4694 25.928 16.5414 25.352C15.6294 24.776 14.9014 23.968 14.3574 22.928C13.8294 21.872 13.5654 20.664 13.5654 19.304ZM24.0294 19.352C24.0294 18.536 23.8694 17.84 23.5494 17.264C23.2294 16.672 22.7974 16.224 22.2534 15.92C21.7094 15.6 21.1254 15.44 20.5014 15.44C19.8774 15.44 19.3014 15.592 18.7734 15.896C18.2454 16.2 17.8134 16.648 17.4774 17.24C17.1574 17.816 16.9974 18.504 16.9974 19.304C16.9974 20.104 17.1574 20.808 17.4774 21.416C17.8134 22.008 18.2454 22.464 18.7734 22.784C19.3174 23.104 19.8934 23.264 20.5014 23.264C21.1254 23.264 21.7094 23.112 22.2534 22.808C22.7974 22.488 23.2294 22.04 23.5494 21.464C23.8694 20.872 24.0294 20.168 24.0294 19.352ZM35.7831 26.216C34.6951 26.216 33.7191 26.024 32.8551 25.64C31.9911 25.24 31.3031 24.704 30.7911 24.032C30.2951 23.36 30.0231 22.616 29.9751 21.8H33.3591C33.4231 22.312 33.6711 22.736 34.1031 23.072C34.5511 23.408 35.1031 23.576 35.7591 23.576C36.3991 23.576 36.8951 23.448 37.2471 23.192C37.6151 22.936 37.7991 22.608 37.7991 22.208C37.7991 21.776 37.5751 21.456 37.1271 21.248C36.6951 21.024 35.9991 20.784 35.0391 20.528C34.0471 20.288 33.2311 20.04 32.5911 19.784C31.9671 19.528 31.4231 19.136 30.9591 18.608C30.5111 18.08 30.2871 17.368 30.2871 16.472C30.2871 15.736 30.4951 15.064 30.9111 14.456C31.3431 13.848 31.9511 13.368 32.7351 13.016C33.5351 12.664 34.4711 12.488 35.5431 12.488C37.1271 12.488 38.3911 12.888 39.3351 13.688C40.2791 14.472 40.7991 15.536 40.8951 16.88H37.6791C37.6311 16.352 37.4071 15.936 37.0071 15.632C36.6231 15.312 36.1031 15.152 35.4471 15.152C34.8391 15.152 34.3671 15.264 34.0311 15.488C33.7111 15.712 33.5511 16.024 33.5511 16.424C33.5511 16.872 33.7751 17.216 34.2231 17.456C34.6711 17.68 35.3671 17.912 36.3111 18.152C37.2711 18.392 38.0631 18.64 38.6871 18.896C39.3111 19.152 39.8471 19.552 40.2951 20.096C40.7591 20.624 40.9991 21.328 41.0151 22.208C41.0151 22.976 40.7991 23.664 40.3671 24.272C39.9511 24.88 39.3431 25.36 38.5431 25.712C37.7591 26.048 36.8391 26.216 35.7831 26.216ZM56.4932 12.704L48.2612 32.288H44.6852L47.5652 25.664L42.2372 12.704H46.0052L49.4372 21.992L52.9172 12.704H56.4932Z" fill="white"/>
</svg>
